<svg id="レイヤー_1" data-name="レイヤー 1" xmlns="http://www.w3.org/2000/svg" viewBox="0 0 240 60" style=""><defs><style>.cls-1{fill:none;stroke:#000;stroke-miterlimit:10;stroke-width:0.2px;}</style></defs><title>アートボード 1</title><path class="cls-1 pvFiOjAA_0" d="M55.81,14.7a2,2,0,0,0,1.31-.38c.15-.15.85-1.12,1.08-1.12a14.77,14.77,0,0,1,1.54,1c1.31.88,1.46,1,1.46,1.31s-.19.54-.65.81c-.65.42-.73.46-.73.81,0,.54,0,2.85.08,3.11a1.16,1.16,0,0,0,1,.77,3.48,3.48,0,0,0,1-.12C62.23,20.73,63.57,19,64,19c.23,0,3.61,2,3.61,2.54s-.77.54-2.08.54H61.11c-.5,0-1.23,0-1.23,1,0,.23.15,4,.15,4.38,0,.85,0,2.42-1.92,2.42-.73,0-.77-.42-.81-.73,0-.92-.65-1-1.19-1H47.73a2.48,2.48,0,0,0-1.69.38c-.15.15-1,1.69-1.58,2.58a4.69,4.69,0,0,0-.73,1.46c0,.85,1.73,1.42,3.61,1.42h11A2.39,2.39,0,0,0,60,33.54c.15-.12.81-.85,1-.85s2.61,1.5,2.61,1.92c0,.19-.81.77-.92,1a11.65,11.65,0,0,0-.19,2.73c0,1,.19,5.73.19,6.81,0,.69-1.31,1.38-2.15,1.38s-.92-.35-.92-1.69c0-1.08-.81-1.08-1.19-1.08H46.89c-1.27,0-1.27.42-1.27,1.54s-1.92,1.54-2.19,1.54c-.88,0-.88-.62-.88-1,0-1,.08-6.08.08-7.23,0-.46,0-3-.12-3.31a.71.71,0,0,0-.62-.42c-.23,0-.23,0-.88.73a31.94,31.94,0,0,1-8.5,6.19c-.12,0-.15,0-.15-.12s.19-.27.31-.38c.38-.31.92-.77,1.08-.88C42,33,43.16,28.89,43.16,28.77c0-.62-.58-.62-.81-.62-2.54,0-3.73.08-4,.08-.15,0-1,.12-1.12.12s-.23-.08-.35-.23l-.77-.88c-.15-.19-.15-.19-.15-.27s.08-.08.15-.08,1.15.08,1.38.12c1.81.08,3.65.15,5.5.15a1.53,1.53,0,0,0,1.35-1,29.08,29.08,0,0,0,.88-3.23C45.19,22,44.5,22,44,22H39.81c-.92,0-3.5,0-4.85.12-.12,0-.69.08-.81.08s-.19-.08-.35-.23l-.73-.88c-.15-.19-.15-.19-.15-.27s.08-.08.12-.08c.23,0,1.42.12,1.69.12,1.12,0,3.11.15,5.27.15h4.58c.46,0,.88,0,1.12-.65a22.72,22.72,0,0,0,.42-3.65c0-1-.73-1-1.23-1h-2c-.92,0-3.54,0-4.85.08a6.36,6.36,0,0,1-.85.12c-.12,0-.19-.08-.31-.27l-.77-.88c-.15-.19-.15-.19-.15-.23a.12.12,0,0,1,.12-.12c.27,0,1.42.15,1.69.15,1.12,0,3.11.12,5.31.12ZM46.62,35c-.62,0-1.23.08-1.23,1.15,0,.58,0,5.11,0,5.69.08.88.81.88,1.23.88h11.8c.62,0,1.23-.08,1.23-1.15,0-.85.08-4.69.08-5.46C59.77,35,59,35,58.54,35ZM50,22c-1.12,0-1.54.12-1.92.92,0,.12-1.15,3.31-1.15,3.42,0,.77.65.77,1,.77h8.23c.31,0,1,0,1.15-.69V23.19c0-.62-.12-1.15-1.15-1.15Zm1-6.31c-.73,0-1.54,0-1.77,1.12-.08.35-.54,3.11-.54,3.31,0,.5.38.88,1.31.88h6.11c1.19,0,1.19-.08,1.19-3.69,0-1.08,0-1.62-1.27-1.62Z"></path><path class="cls-1 pvFiOjAA_1" d="M88.26,18.81c0,.12.08.27.08.42a29.47,29.47,0,0,1,.38,4.15c0,2.58-.58,6.15-4,11.27-3.08,4.69-5,5.61-6.58,5.61-2.54,0-4.81-4-4.81-8.65a13.55,13.55,0,0,1,4.27-9.81,15.91,15.91,0,0,1,12.27-5A12.52,12.52,0,0,1,96.1,18a12.05,12.05,0,0,1,6.69,11.19A14.34,14.34,0,0,1,93.1,42.77a23.64,23.64,0,0,1-6.38,1.42c-.15,0-.38,0-.38-.27s.08-.15,1-.54c4-1.58,12.34-4.88,12.34-14.46,0-1.5-.15-10.65-10.65-10.65C88.29,18.27,88.26,18.58,88.26,18.81ZM75.76,30.62c0,2.5,1,5.92,3.35,5.92,1.12,0,2-.46,4.69-4.46,2-3.11,3.77-7.38,3.77-11.19,0-2.31-.15-2.5-.65-2.5C83.26,18.39,75.76,23.35,75.76,30.62Z"></path><path class="cls-1 pvFiOjAA_2" d="M147.5,15.47l-3.79,31L126.12,24,123.6,44.45h-4.3l3.77-30.56L140.67,36.3l2.55-20.84Z"></path><path class="cls-1 pvFiOjAA_3" d="M169.78,42.53c0,.85-.38,1.58-1.27,1.58-1.92,0-3.85-3.85-3.85-9.81a29.36,29.36,0,0,1,1-7.54c1.08-4.73,1.15-4.92,1.15-6.11a5.45,5.45,0,0,0-.88-3.19,7.67,7.67,0,0,1-.73-1.35c0-.23.46-.31.69-.31,2.15,0,4.08,3.85,4.08,4.54,0,.31-1.69,5-2,6a25.68,25.68,0,0,0-1.38,7.73c0,.23,0,2.69.92,2.69.35,0,.38-.15,1.08-2.27.15-.5,1.31-3.84,1.58-3.84s.15.27.15.35c0,1.23-1.08,6.77-1.08,7.88C169.24,39.46,169.78,42,169.78,42.53ZM185,40.38A6.34,6.34,0,0,1,179.31,44c-2.58,0-4.81-1.58-4.81-3.84,0-.54,0-4.61,7.88-4.73,1,0,1-.27,1-2.65,0-.23-.12-4.31-.15-5.38a1.28,1.28,0,0,0-.31-.92,12.79,12.79,0,0,0-1.77-.08c-4.35,0-5.69-3-5.69-3.42,0-.12,0-.27.19-.27a6.62,6.62,0,0,1,1,.54A11.52,11.52,0,0,0,181,24c2.12,0,2.12,0,2.12-2.54s0-3.5-.73-4.38c-.15-.19-1.19-1-1.19-1.31s.5-.65,1.31-.65,3.35.54,3.35,2c0,.27,0,.35-.42,1a1.67,1.67,0,0,0-.23.81c0,1.15,2,1.23,2.23,1.23,1.69.08,3,.12,3,1.73,0,1.81-2.58,2.92-4,3.54s-1.42.65-1.42,2.31c0,.85.27,5.19.38,6.23.15,1.42.27,1.69,1.23,2.11,1.88.81,5.92,2.62,5.92,4.88a1.51,1.51,0,0,1-1.38,1.54c-.46,0-.58-.15-1.5-1.31-1.12-1.35-3.11-3-3.81-2.61C185.5,38.69,185.16,40.11,185,40.38Zm-9-.5c0,1,1.19,1.69,2.54,1.69,2.27,0,4.61-1.85,4.61-3.15,0-.65-.54-1-3-1C178,37.46,176,38.77,176,39.88Zm8.88-18.19c0,1.46.31,1.46.58,1.46.54,0,2-.46,2-1.35,0-.69-1.27-1.19-1.81-1.19a.81.81,0,0,0-.46.15A1.16,1.16,0,0,0,184.93,21.69Z"></path><path class="cls-1 pvFiOjAA_4" d="M207.65,42.38a4.27,4.27,0,1,1-8.54,0,4.27,4.27,0,0,1,8.54,0Zm-7.46,0a3.22,3.22,0,0,0,3.23,3.23,3.17,3.17,0,0,0,3.19-3.15,3.22,3.22,0,0,0-3.27-3.23A3.11,3.11,0,0,0,200.19,42.34Z"></path><style>.pvFiOjAA_0{stroke-dasharray:333 335;stroke-dashoffset:334;animation:pvFiOjAA_draw 3000ms ease-in-out 0ms forwards;}.pvFiOjAA_1{stroke-dasharray:193 195;stroke-dashoffset:194;animation:pvFiOjAA_draw 3000ms ease-in-out 0ms forwards;}.pvFiOjAA_2{stroke-dasharray:170 172;stroke-dashoffset:171;animation:pvFiOjAA_draw 3000ms ease-in-out 0ms forwards;}.pvFiOjAA_3{stroke-dasharray:213 215;stroke-dashoffset:214;animation:pvFiOjAA_draw 3000ms ease-in-out 0ms forwards;}.pvFiOjAA_4{stroke-dasharray:47 49;stroke-dashoffset:48;animation:pvFiOjAA_draw 3000ms ease-in-out 0ms forwards;}@keyframes pvFiOjAA_draw{100%{stroke-dashoffset:0;}}@keyframes pvFiOjAA_fade{0%{stroke-opacity:1;}94.44444444444444%{stroke-opacity:1;}100%{stroke-opacity:0;}}</style></svg>